<?xml version="1.0" encoding="UTF-8"?>
<svg fill="none" viewBox="0 0 131 40" xmlns="http://www.w3.org/2000/svg">
<rect width="99" height="40" rx="20" fill="url(#a)"/>
<path d="m10.6 24.016h1.08c0.816 0 1.544-0.128 2.184-0.384s1.176-0.608 1.608-1.056c0.448-0.448 0.784-0.976 1.008-1.584 0.24-0.624 0.36-1.304 0.36-2.04 0-0.72-0.12-1.392-0.36-2.016s-0.584-1.16-1.032-1.608c-0.432-0.448-0.968-0.8-1.608-1.056s-1.36-0.384-2.16-0.384h-1.08v10.128zm-4.704-14.112h6.96c1.232 0 2.384 0.248 3.456 0.744 1.088 0.496 2.032 1.16 2.832 1.992 0.816 0.816 1.456 1.776 1.92 2.88 0.464 1.088 0.696 2.232 0.696 3.432 0 1.184-0.232 2.328-0.696 3.432-0.448 1.088-1.08 2.048-1.896 2.88-0.8 0.832-1.744 1.496-2.832 1.992-1.072 0.496-2.232 0.744-3.48 0.744h-6.96v-18.096zm28.803 4.632c-0.512-0.416-1.024-0.72-1.536-0.912-0.512-0.208-1.008-0.312-1.488-0.312-0.608 0-1.104 0.144-1.488 0.432s-0.576 0.664-0.576 1.128c0 0.32 0.096 0.584 0.288 0.792s0.44 0.392 0.744 0.552c0.32 0.144 0.672 0.272 1.056 0.384 0.4 0.112 0.792 0.232 1.176 0.36 1.536 0.512 2.656 1.2 3.36 2.064 0.72 0.848 1.08 1.96 1.08 3.336 0 0.928-0.16 1.768-0.48 2.52-0.304 0.752-0.76 1.4-1.368 1.944-0.592 0.528-1.328 0.936-2.208 1.224-0.864 0.304-1.848 0.456-2.952 0.456-2.288 0-4.408-0.68-6.36-2.04l2.016-3.792c0.704 0.624 1.4 1.088 2.088 1.392s1.368 0.456 2.04 0.456c0.768 0 1.336-0.176 1.704-0.528 0.384-0.352 0.576-0.752 0.576-1.2 0-0.272-0.048-0.504-0.144-0.696-0.096-0.208-0.256-0.392-0.48-0.552-0.224-0.176-0.52-0.336-0.888-0.48-0.352-0.144-0.784-0.304-1.296-0.48-0.608-0.192-1.208-0.4-1.8-0.624-0.576-0.24-1.096-0.552-1.56-0.936-0.448-0.384-0.816-0.864-1.104-1.44-0.272-0.592-0.408-1.336-0.408-2.232s0.144-1.704 0.432-2.424c0.304-0.736 0.72-1.36 1.248-1.872 0.544-0.528 1.2-0.936 1.968-1.224 0.784-0.288 1.656-0.432 2.616-0.432 0.896 0 1.832 0.128 2.808 0.384 0.976 0.24 1.912 0.6 2.808 1.08l-1.872 3.672zm18.612 1.416c-1.088-1.328-2.432-1.992-4.032-1.992-0.704 0-1.36 0.128-1.968 0.384-0.592 0.256-1.104 0.608-1.536 1.056-0.432 0.432-0.776 0.952-1.032 1.56-0.24 0.608-0.36 1.264-0.36 1.968 0 0.72 0.12 1.384 0.36 1.992 0.256 0.608 0.6 1.136 1.032 1.584 0.448 0.448 0.968 0.8 1.56 1.056s1.232 0.384 1.92 0.384c1.504 0 2.856-0.64 4.056-1.92v5.568l-0.48 0.168c-0.72 0.256-1.392 0.44-2.016 0.552-0.624 0.128-1.24 0.192-1.848 0.192-1.248 0-2.448-0.232-3.6-0.696-1.136-0.48-2.144-1.144-3.024-1.992-0.864-0.864-1.56-1.88-2.088-3.048-0.528-1.184-0.792-2.472-0.792-3.864s0.256-2.664 0.768-3.816c0.528-1.168 1.224-2.168 2.088-3 0.88-0.848 1.896-1.504 3.048-1.968 1.152-0.48 2.36-0.72 3.624-0.72 0.72 0 1.424 0.08 2.112 0.24 0.704 0.144 1.44 0.376 2.208 0.696v5.616zm6.1918-6.048 4.368 11.016 4.392-11.016h5.112l-7.632 18.096h-3.744l-7.608-18.096h5.112zm20.472 8.088h0.888c0.928 0 1.64-0.192 2.136-0.576s0.744-0.936 0.744-1.656-0.248-1.272-0.744-1.656-1.208-0.576-2.136-0.576h-0.888v4.464zm10.344 10.008h-5.856l-4.488-6.96v6.96h-4.704v-18.096h7.32c1.008 0 1.888 0.152 2.64 0.456 0.752 0.288 1.368 0.688 1.848 1.2 0.496 0.512 0.864 1.104 1.104 1.776 0.256 0.672 0.384 1.392 0.384 2.16 0 1.376-0.336 2.496-1.008 3.36-0.656 0.848-1.632 1.424-2.928 1.728l5.688 7.416zm1.3436-2.304c0-0.384 0.072-0.744 0.216-1.08 0.144-0.352 0.344-0.656 0.6-0.912s0.552-0.456 0.888-0.6c0.352-0.144 0.72-0.216 1.104-0.216s0.744 0.072 1.08 0.216c0.352 0.144 0.656 0.344 0.912 0.6s0.456 0.56 0.6 0.912c0.144 0.336 0.216 0.696 0.216 1.08s-0.072 0.752-0.216 1.104c-0.144 0.336-0.344 0.632-0.6 0.888s-0.56 0.456-0.912 0.6c-0.336 0.144-0.696 0.216-1.08 0.216s-0.752-0.072-1.104-0.216c-0.336-0.144-0.632-0.344-0.888-0.6s-0.456-0.552-0.6-0.888c-0.144-0.352-0.216-0.72-0.216-1.104zm11.804-15.792 3.12 11.688 3.84-11.688h3.744l3.84 11.688 3.12-11.688h4.92l-5.4 18.096h-4.8l-3.552-10.488-3.552 10.488h-4.8l-5.4001-18.096h4.9201z" fill="#fff"/>
<defs>
<linearGradient id="a" x1="7.3761e-7" x2="99" y1="20" y2="20" gradientUnits="userSpaceOnUse">
<stop stop-color="#C4ADA3" offset="0"/>
<stop stop-color="#DB6C6C" offset="1"/>
</linearGradient>
</defs>
</svg>
