<svg width="208" height="36" viewBox="0 0 208 36" fill="none" xmlns="http://www.w3.org/2000/svg">
<path d="M11.6711 5.6732C10.4036 5.29397 9.25132 4.60639 8.31874 3.6728C7.38616 2.73922 6.70278 1.58916 6.3305 0.326798C6.3305 0.240126 6.29587 0.156988 6.2342 0.0957016C6.17253 0.0344152 6.08886 0 6.00165 0C5.91443 0 5.83077 0.0344152 5.76909 0.0957016C5.70742 0.156988 5.67279 0.240126 5.67279 0.326798C5.29967 1.58926 4.6156 2.73931 3.6825 3.67284C2.7494 4.60638 1.59673 5.29391 0.328857 5.6732C0.241639 5.6732 0.157977 5.70762 0.0963048 5.7689C0.0346321 5.83019 0 5.91333 0 6C0 6.08667 0.0346321 6.16977 0.0963048 6.23106C0.157977 6.29234 0.241639 6.3268 0.328857 6.3268C1.59729 6.70502 2.75053 7.39219 3.68379 8.32588C4.61705 9.25957 5.30074 10.4102 5.67279 11.6732C5.67279 11.7599 5.70742 11.843 5.76909 11.9043C5.83077 11.9656 5.91443 12 6.00165 12C6.08886 12 6.17253 11.9656 6.2342 11.9043C6.29587 11.843 6.3305 11.7599 6.3305 11.6732C6.7017 10.4103 7.38472 9.25962 8.31746 8.32588C9.25019 7.39214 10.403 6.70496 11.6711 6.3268C11.7584 6.3268 11.842 6.29234 11.9037 6.23106C11.9654 6.16977 12 6.08667 12 6C12 5.91333 11.9654 5.83019 11.9037 5.7689C11.842 5.70762 11.7584 5.6732 11.6711 5.6732Z" fill="white"/>
<path d="M39.6711 5.6732C38.4036 5.29397 37.2513 4.60639 36.3187 3.6728C35.3862 2.73922 34.7028 1.58916 34.3305 0.326798C34.3305 0.240126 34.2959 0.156988 34.2342 0.0957016C34.1725 0.0344152 34.0889 0 34.0016 0C33.9144 0 33.8308 0.0344152 33.7691 0.0957016C33.7074 0.156988 33.6728 0.240126 33.6728 0.326798C33.2997 1.58926 32.6156 2.73931 31.6825 3.67284C30.7494 4.60638 29.5967 5.29391 28.3289 5.6732C28.2416 5.6732 28.158 5.70762 28.0963 5.7689C28.0346 5.83019 28 5.91333 28 6C28 6.08667 28.0346 6.16977 28.0963 6.23106C28.158 6.29234 28.2416 6.3268 28.3289 6.3268C29.5973 6.70502 30.7505 7.39219 31.6838 8.32588C32.617 9.25957 33.3007 10.4102 33.6728 11.6732C33.6728 11.7599 33.7074 11.843 33.7691 11.9043C33.8308 11.9656 33.9144 12 34.0016 12C34.0889 12 34.1725 11.9656 34.2342 11.9043C34.2959 11.843 34.3305 11.7599 34.3305 11.6732C34.7017 10.4103 35.3847 9.25962 36.3175 8.32588C37.2502 7.39214 38.403 6.70496 39.6711 6.3268C39.7584 6.3268 39.842 6.29234 39.9037 6.23106C39.9654 6.16977 40 6.08667 40 6C40 5.91333 39.9654 5.83019 39.9037 5.7689C39.842 5.70762 39.7584 5.6732 39.6711 5.6732Z" fill="white" fill-opacity="0.16"/>
<path d="M67.6711 5.6732C66.4036 5.29397 65.2513 4.60639 64.3187 3.6728C63.3862 2.73922 62.7028 1.58916 62.3305 0.326798C62.3305 0.240126 62.2959 0.156988 62.2342 0.0957016C62.1725 0.0344152 62.0889 0 62.0016 0C61.9144 0 61.8308 0.0344152 61.7691 0.0957016C61.7074 0.156988 61.6728 0.240126 61.6728 0.326798C61.2997 1.58926 60.6156 2.73931 59.6825 3.67284C58.7494 4.60638 57.5967 5.29391 56.3289 5.6732C56.2416 5.6732 56.158 5.70762 56.0963 5.7689C56.0346 5.83019 56 5.91333 56 6C56 6.08667 56.0346 6.16977 56.0963 6.23106C56.158 6.29234 56.2416 6.3268 56.3289 6.3268C57.5973 6.70502 58.7505 7.39219 59.6838 8.32588C60.617 9.25957 61.3007 10.4102 61.6728 11.6732C61.6728 11.7599 61.7074 11.843 61.7691 11.9043C61.8308 11.9656 61.9144 12 62.0016 12C62.0889 12 62.1725 11.9656 62.2342 11.9043C62.2959 11.843 62.3305 11.7599 62.3305 11.6732C62.7017 10.4103 63.3847 9.25962 64.3175 8.32588C65.2502 7.39214 66.403 6.70496 67.6711 6.3268C67.7584 6.3268 67.842 6.29234 67.9037 6.23106C67.9654 6.16977 68 6.08667 68 6C68 5.91333 67.9654 5.83019 67.9037 5.7689C67.842 5.70762 67.7584 5.6732 67.6711 5.6732Z" fill="white"/>
<path d="M95.6711 5.6732C94.4036 5.29397 93.2513 4.60639 92.3187 3.6728C91.3862 2.73922 90.7028 1.58916 90.3305 0.326798C90.3305 0.240126 90.2959 0.156988 90.2342 0.0957016C90.1725 0.0344152 90.0889 0 90.0016 0C89.9144 0 89.8308 0.0344152 89.7691 0.0957016C89.7074 0.156988 89.6728 0.240126 89.6728 0.326798C89.2997 1.58926 88.6156 2.73931 87.6825 3.67284C86.7494 4.60638 85.5967 5.29391 84.3289 5.6732C84.2416 5.6732 84.158 5.70762 84.0963 5.7689C84.0346 5.83019 84 5.91333 84 6C84 6.08667 84.0346 6.16977 84.0963 6.23106C84.158 6.29234 84.2416 6.3268 84.3289 6.3268C85.5973 6.70502 86.7505 7.39219 87.6838 8.32588C88.617 9.25957 89.3007 10.4102 89.6728 11.6732C89.6728 11.7599 89.7074 11.843 89.7691 11.9043C89.8308 11.9656 89.9144 12 90.0016 12C90.0889 12 90.1725 11.9656 90.2342 11.9043C90.2959 11.843 90.3305 11.7599 90.3305 11.6732C90.7017 10.4103 91.3847 9.25962 92.3175 8.32588C93.2502 7.39214 94.403 6.70496 95.6711 6.3268C95.7584 6.3268 95.842 6.29234 95.9037 6.23106C95.9654 6.16977 96 6.08667 96 6C96 5.91333 95.9654 5.83019 95.9037 5.7689C95.842 5.70762 95.7584 5.6732 95.6711 5.6732Z" fill="url(#paint0_linear_1_879)"/>
<path d="M123.671 5.6732C122.404 5.29397 121.251 4.60639 120.319 3.6728C119.386 2.73922 118.703 1.58916 118.331 0.326798C118.331 0.240126 118.296 0.156988 118.234 0.0957016C118.173 0.0344152 118.089 0 118.002 0C117.914 0 117.831 0.0344152 117.769 0.0957016C117.707 0.156988 117.673 0.240126 117.673 0.326798C117.3 1.58926 116.616 2.73931 115.683 3.67284C114.749 4.60638 113.597 5.29391 112.329 5.6732C112.242 5.6732 112.158 5.70762 112.096 5.7689C112.035 5.83019 112 5.91333 112 6C112 6.08667 112.035 6.16977 112.096 6.23106C112.158 6.29234 112.242 6.3268 112.329 6.3268C113.597 6.70502 114.751 7.39219 115.684 8.32588C116.617 9.25957 117.301 10.4102 117.673 11.6732C117.673 11.7599 117.707 11.843 117.769 11.9043C117.831 11.9656 117.914 12 118.002 12C118.089 12 118.173 11.9656 118.234 11.9043C118.296 11.843 118.331 11.7599 118.331 11.6732C118.702 10.4103 119.385 9.25962 120.317 8.32588C121.25 7.39214 122.403 6.70496 123.671 6.3268C123.758 6.3268 123.842 6.29234 123.904 6.23106C123.965 6.16977 124 6.08667 124 6C124 5.91333 123.965 5.83019 123.904 5.7689C123.842 5.70762 123.758 5.6732 123.671 5.6732Z" fill="white" fill-opacity="0.16"/>
<path d="M151.671 5.6732C150.404 5.29397 149.251 4.60639 148.319 3.6728C147.386 2.73922 146.703 1.58916 146.331 0.326798C146.331 0.240126 146.296 0.156988 146.234 0.0957016C146.173 0.0344152 146.089 0 146.002 0C145.914 0 145.831 0.0344152 145.769 0.0957016C145.707 0.156988 145.673 0.240126 145.673 0.326798C145.3 1.58926 144.616 2.73931 143.683 3.67284C142.749 4.60638 141.597 5.29391 140.329 5.6732C140.242 5.6732 140.158 5.70762 140.096 5.7689C140.035 5.83019 140 5.91333 140 6C140 6.08667 140.035 6.16977 140.096 6.23106C140.158 6.29234 140.242 6.3268 140.329 6.3268C141.597 6.70502 142.751 7.39219 143.684 8.32588C144.617 9.25957 145.301 10.4102 145.673 11.6732C145.673 11.7599 145.707 11.843 145.769 11.9043C145.831 11.9656 145.914 12 146.002 12C146.089 12 146.173 11.9656 146.234 11.9043C146.296 11.843 146.331 11.7599 146.331 11.6732C146.702 10.4103 147.385 9.25962 148.317 8.32588C149.25 7.39214 150.403 6.70496 151.671 6.3268C151.758 6.3268 151.842 6.29234 151.904 6.23106C151.965 6.16977 152 6.08667 152 6C152 5.91333 151.965 5.83019 151.904 5.7689C151.842 5.70762 151.758 5.6732 151.671 5.6732Z" fill="white"/>
<path d="M179.671 5.6732C178.404 5.29397 177.251 4.60639 176.319 3.6728C175.386 2.73922 174.703 1.58916 174.331 0.326798C174.331 0.240126 174.296 0.156988 174.234 0.0957016C174.173 0.0344152 174.089 0 174.002 0C173.914 0 173.831 0.0344152 173.769 0.0957016C173.707 0.156988 173.673 0.240126 173.673 0.326798C173.3 1.58926 172.616 2.73931 171.683 3.67284C170.749 4.60638 169.597 5.29391 168.329 5.6732C168.242 5.6732 168.158 5.70762 168.096 5.7689C168.035 5.83019 168 5.91333 168 6C168 6.08667 168.035 6.16977 168.096 6.23106C168.158 6.29234 168.242 6.3268 168.329 6.3268C169.597 6.70502 170.751 7.39219 171.684 8.32588C172.617 9.25957 173.301 10.4102 173.673 11.6732C173.673 11.7599 173.707 11.843 173.769 11.9043C173.831 11.9656 173.914 12 174.002 12C174.089 12 174.173 11.9656 174.234 11.9043C174.296 11.843 174.331 11.7599 174.331 11.6732C174.702 10.4103 175.385 9.25962 176.317 8.32588C177.25 7.39214 178.403 6.70496 179.671 6.3268C179.758 6.3268 179.842 6.29234 179.904 6.23106C179.965 6.16977 180 6.08667 180 6C180 5.91333 179.965 5.83019 179.904 5.7689C179.842 5.70762 179.758 5.6732 179.671 5.6732Z" fill="white" fill-opacity="0.08"/>
<path d="M207.671 5.6732C206.404 5.29397 205.251 4.60639 204.319 3.6728C203.386 2.73922 202.703 1.58916 202.331 0.326798C202.331 0.240126 202.296 0.156988 202.234 0.0957016C202.173 0.0344152 202.089 0 202.002 0C201.914 0 201.831 0.0344152 201.769 0.0957016C201.707 0.156988 201.673 0.240126 201.673 0.326798C201.3 1.58926 200.616 2.73931 199.683 3.67284C198.749 4.60638 197.597 5.29391 196.329 5.6732C196.242 5.6732 196.158 5.70762 196.096 5.7689C196.035 5.83019 196 5.91333 196 6C196 6.08667 196.035 6.16977 196.096 6.23106C196.158 6.29234 196.242 6.3268 196.329 6.3268C197.597 6.70502 198.751 7.39219 199.684 8.32588C200.617 9.25957 201.301 10.4102 201.673 11.6732C201.673 11.7599 201.707 11.843 201.769 11.9043C201.831 11.9656 201.914 12 202.002 12C202.089 12 202.173 11.9656 202.234 11.9043C202.296 11.843 202.331 11.7599 202.331 11.6732C202.702 10.4103 203.385 9.25962 204.317 8.32588C205.25 7.39214 206.403 6.70496 207.671 6.3268C207.758 6.3268 207.842 6.29234 207.904 6.23106C207.965 6.16977 208 6.08667 208 6C208 5.91333 207.965 5.83019 207.904 5.7689C207.842 5.70762 207.758 5.6732 207.671 5.6732Z" fill="white"/>
<path d="M11.6711 29.6732C10.4036 29.294 9.25132 28.6064 8.31874 27.6728C7.38616 26.7392 6.70278 25.5892 6.3305 24.3268C6.3305 24.2401 6.29587 24.157 6.2342 24.0957C6.17253 24.0344 6.08886 24 6.00165 24C5.91443 24 5.83077 24.0344 5.76909 24.0957C5.70742 24.157 5.67279 24.2401 5.67279 24.3268C5.29967 25.5893 4.6156 26.7393 3.6825 27.6728C2.7494 28.6064 1.59673 29.2939 0.328857 29.6732C0.241639 29.6732 0.157977 29.7076 0.0963048 29.7689C0.0346321 29.8302 0 29.9133 0 30C0 30.0867 0.0346321 30.1698 0.0963048 30.2311C0.157977 30.2923 0.241639 30.3268 0.328857 30.3268C1.59729 30.705 2.75053 31.3922 3.68379 32.3259C4.61705 33.2596 5.30074 34.4102 5.67279 35.6732C5.67279 35.7599 5.70742 35.843 5.76909 35.9043C5.83077 35.9656 5.91443 36 6.00165 36C6.08886 36 6.17253 35.9656 6.2342 35.9043C6.29587 35.843 6.3305 35.7599 6.3305 35.6732C6.7017 34.4103 7.38472 33.2596 8.31746 32.3259C9.25019 31.3921 10.403 30.705 11.6711 30.3268C11.7584 30.3268 11.842 30.2923 11.9037 30.2311C11.9654 30.1698 12 30.0867 12 30C12 29.9133 11.9654 29.8302 11.9037 29.7689C11.842 29.7076 11.7584 29.6732 11.6711 29.6732Z" fill="white" fill-opacity="0.08"/>
<path d="M39.6711 29.6732C38.4036 29.294 37.2513 28.6064 36.3187 27.6728C35.3862 26.7392 34.7028 25.5892 34.3305 24.3268C34.3305 24.2401 34.2959 24.157 34.2342 24.0957C34.1725 24.0344 34.0889 24 34.0016 24C33.9144 24 33.8308 24.0344 33.7691 24.0957C33.7074 24.157 33.6728 24.2401 33.6728 24.3268C33.2997 25.5893 32.6156 26.7393 31.6825 27.6728C30.7494 28.6064 29.5967 29.2939 28.3289 29.6732C28.2416 29.6732 28.158 29.7076 28.0963 29.7689C28.0346 29.8302 28 29.9133 28 30C28 30.0867 28.0346 30.1698 28.0963 30.2311C28.158 30.2923 28.2416 30.3268 28.3289 30.3268C29.5973 30.705 30.7505 31.3922 31.6838 32.3259C32.617 33.2596 33.3007 34.4102 33.6728 35.6732C33.6728 35.7599 33.7074 35.843 33.7691 35.9043C33.8308 35.9656 33.9144 36 34.0016 36C34.0889 36 34.1725 35.9656 34.2342 35.9043C34.2959 35.843 34.3305 35.7599 34.3305 35.6732C34.7017 34.4103 35.3847 33.2596 36.3175 32.3259C37.2502 31.3921 38.403 30.705 39.6711 30.3268C39.7584 30.3268 39.842 30.2923 39.9037 30.2311C39.9654 30.1698 40 30.0867 40 30C40 29.9133 39.9654 29.8302 39.9037 29.7689C39.842 29.7076 39.7584 29.6732 39.6711 29.6732Z" fill="white" fill-opacity="0.08"/>
<path d="M67.6711 29.6732C66.4036 29.294 65.2513 28.6064 64.3187 27.6728C63.3862 26.7392 62.7028 25.5892 62.3305 24.3268C62.3305 24.2401 62.2959 24.157 62.2342 24.0957C62.1725 24.0344 62.0889 24 62.0016 24C61.9144 24 61.8308 24.0344 61.7691 24.0957C61.7074 24.157 61.6728 24.2401 61.6728 24.3268C61.2997 25.5893 60.6156 26.7393 59.6825 27.6728C58.7494 28.6064 57.5967 29.2939 56.3289 29.6732C56.2416 29.6732 56.158 29.7076 56.0963 29.7689C56.0346 29.8302 56 29.9133 56 30C56 30.0867 56.0346 30.1698 56.0963 30.2311C56.158 30.2923 56.2416 30.3268 56.3289 30.3268C57.5973 30.705 58.7505 31.3922 59.6838 32.3259C60.617 33.2596 61.3007 34.4102 61.6728 35.6732C61.6728 35.7599 61.7074 35.843 61.7691 35.9043C61.8308 35.9656 61.9144 36 62.0016 36C62.0889 36 62.1725 35.9656 62.2342 35.9043C62.2959 35.843 62.3305 35.7599 62.3305 35.6732C62.7017 34.4103 63.3847 33.2596 64.3175 32.3259C65.2502 31.3921 66.403 30.705 67.6711 30.3268C67.7584 30.3268 67.842 30.2923 67.9037 30.2311C67.9654 30.1698 68 30.0867 68 30C68 29.9133 67.9654 29.8302 67.9037 29.7689C67.842 29.7076 67.7584 29.6732 67.6711 29.6732Z" fill="white"/>
<path d="M95.6711 29.6732C94.4036 29.294 93.2513 28.6064 92.3187 27.6728C91.3862 26.7392 90.7028 25.5892 90.3305 24.3268C90.3305 24.2401 90.2959 24.157 90.2342 24.0957C90.1725 24.0344 90.0889 24 90.0016 24C89.9144 24 89.8308 24.0344 89.7691 24.0957C89.7074 24.157 89.6728 24.2401 89.6728 24.3268C89.2997 25.5893 88.6156 26.7393 87.6825 27.6728C86.7494 28.6064 85.5967 29.2939 84.3289 29.6732C84.2416 29.6732 84.158 29.7076 84.0963 29.7689C84.0346 29.8302 84 29.9133 84 30C84 30.0867 84.0346 30.1698 84.0963 30.2311C84.158 30.2923 84.2416 30.3268 84.3289 30.3268C85.5973 30.705 86.7505 31.3922 87.6838 32.3259C88.617 33.2596 89.3007 34.4102 89.6728 35.6732C89.6728 35.7599 89.7074 35.843 89.7691 35.9043C89.8308 35.9656 89.9144 36 90.0016 36C90.0889 36 90.1725 35.9656 90.2342 35.9043C90.2959 35.843 90.3305 35.7599 90.3305 35.6732C90.7017 34.4103 91.3847 33.2596 92.3175 32.3259C93.2502 31.3921 94.403 30.705 95.6711 30.3268C95.7584 30.3268 95.842 30.2923 95.9037 30.2311C95.9654 30.1698 96 30.0867 96 30C96 29.9133 95.9654 29.8302 95.9037 29.7689C95.842 29.7076 95.7584 29.6732 95.6711 29.6732Z" fill="white" fill-opacity="0.08"/>
<path d="M123.671 29.6732C122.404 29.294 121.251 28.6064 120.319 27.6728C119.386 26.7392 118.703 25.5892 118.331 24.3268C118.331 24.2401 118.296 24.157 118.234 24.0957C118.173 24.0344 118.089 24 118.002 24C117.914 24 117.831 24.0344 117.769 24.0957C117.707 24.157 117.673 24.2401 117.673 24.3268C117.3 25.5893 116.616 26.7393 115.683 27.6728C114.749 28.6064 113.597 29.2939 112.329 29.6732C112.242 29.6732 112.158 29.7076 112.096 29.7689C112.035 29.8302 112 29.9133 112 30C112 30.0867 112.035 30.1698 112.096 30.2311C112.158 30.2923 112.242 30.3268 112.329 30.3268C113.597 30.705 114.751 31.3922 115.684 32.3259C116.617 33.2596 117.301 34.4102 117.673 35.6732C117.673 35.7599 117.707 35.843 117.769 35.9043C117.831 35.9656 117.914 36 118.002 36C118.089 36 118.173 35.9656 118.234 35.9043C118.296 35.843 118.331 35.7599 118.331 35.6732C118.702 34.4103 119.385 33.2596 120.317 32.3259C121.25 31.3921 122.403 30.705 123.671 30.3268C123.758 30.3268 123.842 30.2923 123.904 30.2311C123.965 30.1698 124 30.0867 124 30C124 29.9133 123.965 29.8302 123.904 29.7689C123.842 29.7076 123.758 29.6732 123.671 29.6732Z" fill="white"/>
<path d="M151.671 29.6732C150.404 29.294 149.251 28.6064 148.319 27.6728C147.386 26.7392 146.703 25.5892 146.331 24.3268C146.331 24.2401 146.296 24.157 146.234 24.0957C146.173 24.0344 146.089 24 146.002 24C145.914 24 145.831 24.0344 145.769 24.0957C145.707 24.157 145.673 24.2401 145.673 24.3268C145.3 25.5893 144.616 26.7393 143.683 27.6728C142.749 28.6064 141.597 29.2939 140.329 29.6732C140.242 29.6732 140.158 29.7076 140.096 29.7689C140.035 29.8302 140 29.9133 140 30C140 30.0867 140.035 30.1698 140.096 30.2311C140.158 30.2923 140.242 30.3268 140.329 30.3268C141.597 30.705 142.751 31.3922 143.684 32.3259C144.617 33.2596 145.301 34.4102 145.673 35.6732C145.673 35.7599 145.707 35.843 145.769 35.9043C145.831 35.9656 145.914 36 146.002 36C146.089 36 146.173 35.9656 146.234 35.9043C146.296 35.843 146.331 35.7599 146.331 35.6732C146.702 34.4103 147.385 33.2596 148.317 32.3259C149.25 31.3921 150.403 30.705 151.671 30.3268C151.758 30.3268 151.842 30.2923 151.904 30.2311C151.965 30.1698 152 30.0867 152 30C152 29.9133 151.965 29.8302 151.904 29.7689C151.842 29.7076 151.758 29.6732 151.671 29.6732Z" fill="url(#paint1_linear_1_879)"/>
<path d="M179.671 29.6732C178.404 29.294 177.251 28.6064 176.319 27.6728C175.386 26.7392 174.703 25.5892 174.331 24.3268C174.331 24.2401 174.296 24.157 174.234 24.0957C174.173 24.0344 174.089 24 174.002 24C173.914 24 173.831 24.0344 173.769 24.0957C173.707 24.157 173.673 24.2401 173.673 24.3268C173.3 25.5893 172.616 26.7393 171.683 27.6728C170.749 28.6064 169.597 29.2939 168.329 29.6732C168.242 29.6732 168.158 29.7076 168.096 29.7689C168.035 29.8302 168 29.9133 168 30C168 30.0867 168.035 30.1698 168.096 30.2311C168.158 30.2923 168.242 30.3268 168.329 30.3268C169.597 30.705 170.751 31.3922 171.684 32.3259C172.617 33.2596 173.301 34.4102 173.673 35.6732C173.673 35.7599 173.707 35.843 173.769 35.9043C173.831 35.9656 173.914 36 174.002 36C174.089 36 174.173 35.9656 174.234 35.9043C174.296 35.843 174.331 35.7599 174.331 35.6732C174.702 34.4103 175.385 33.2596 176.317 32.3259C177.25 31.3921 178.403 30.705 179.671 30.3268C179.758 30.3268 179.842 30.2923 179.904 30.2311C179.965 30.1698 180 30.0867 180 30C180 29.9133 179.965 29.8302 179.904 29.7689C179.842 29.7076 179.758 29.6732 179.671 29.6732Z" fill="white" fill-opacity="0.08"/>
<path d="M207.671 29.6732C206.404 29.294 205.251 28.6064 204.319 27.6728C203.386 26.7392 202.703 25.5892 202.331 24.3268C202.331 24.2401 202.296 24.157 202.234 24.0957C202.173 24.0344 202.089 24 202.002 24C201.914 24 201.831 24.0344 201.769 24.0957C201.707 24.157 201.673 24.2401 201.673 24.3268C201.3 25.5893 200.616 26.7393 199.683 27.6728C198.749 28.6064 197.597 29.2939 196.329 29.6732C196.242 29.6732 196.158 29.7076 196.096 29.7689C196.035 29.8302 196 29.9133 196 30C196 30.0867 196.035 30.1698 196.096 30.2311C196.158 30.2923 196.242 30.3268 196.329 30.3268C197.597 30.705 198.751 31.3922 199.684 32.3259C200.617 33.2596 201.301 34.4102 201.673 35.6732C201.673 35.7599 201.707 35.843 201.769 35.9043C201.831 35.9656 201.914 36 202.002 36C202.089 36 202.173 35.9656 202.234 35.9043C202.296 35.843 202.331 35.7599 202.331 35.6732C202.702 34.4103 203.385 33.2596 204.317 32.3259C205.25 31.3921 206.403 30.705 207.671 30.3268C207.758 30.3268 207.842 30.2923 207.904 30.2311C207.965 30.1698 208 30.0867 208 30C208 29.9133 207.965 29.8302 207.904 29.7689C207.842 29.7076 207.758 29.6732 207.671 29.6732Z" fill="white"/>
<defs>
<linearGradient id="paint0_linear_1_879" x1="84" y1="6" x2="96" y2="6" gradientUnits="userSpaceOnUse">
<stop stop-color="#FC4C02"/>
<stop offset="1" stop-color="#2522D3"/>
</linearGradient>
<linearGradient id="paint1_linear_1_879" x1="140" y1="30" x2="152" y2="30" gradientUnits="userSpaceOnUse">
<stop stop-color="#FC4C02"/>
<stop offset="1" stop-color="#2522D3"/>
</linearGradient>
</defs>
</svg>
